<svg xmlns="http://www.w3.org/2000/svg" viewBox="0 0 512 512">
  <defs>
    <linearGradient id="bg" x1="64" y1="64" x2="448" y2="448" gradientUnits="userSpaceOnUse">
      <stop offset="0" stop-color="#ffd166"/>
      <stop offset="1" stop-color="#f97316"/>
    </linearGradient>
    <filter id="shadow" x="-20%" y="-20%" width="140%" height="140%">
      <feDropShadow dx="0" dy="10" stdDeviation="12" flood-color="#000000" flood-opacity="0.25"/>
    </filter>
  </defs>

  <rect width="512" height="512" rx="112" fill="url(#bg)"/>

  <g filter="url(#shadow)">
    <rect x="126" y="116" width="260" height="260" rx="46" fill="#fff7ed" stroke="#111827" stroke-width="16"/>
    <circle cx="198" cy="188" r="18" fill="#111827"/>
    <circle cx="314" cy="188" r="18" fill="#111827"/>
    <circle cx="256" cy="246" r="18" fill="#111827"/>
    <circle cx="198" cy="304" r="18" fill="#111827"/>
    <circle cx="314" cy="304" r="18" fill="#111827"/>
  </g>

  <g filter="url(#shadow)">
    <path d="M132 350c0-42 34-76 76-76h96c42 0 76 34 76 76v12H132v-12z" fill="#111827"/>
    <path d="M154 350c8-28 30-48 58-48h88c28 0 50 20 58 48H154z" fill="#f9fafb"/>
    <circle cx="218" cy="326" r="12" fill="#22c55e"/>
    <circle cx="258" cy="318" r="12" fill="#f97316"/>
    <circle cx="298" cy="326" r="12" fill="#22c55e"/>
    <rect x="150" y="362" width="212" height="26" rx="13" fill="#111827"/>
  </g>

  <path d="M250 64h12v36h-12zM403 250h36v12h-36zM73 250h36v12H73zM353 96l9 9-26 26-9-9zM159 96l26 26-9 9-26-26z" fill="#111827" opacity="0.45"/>
</svg>
